<svg width="52" height="47" viewBox="0 0 52 47" fill="none" xmlns="http://www.w3.org/2000/svg">
<path fill-rule="evenodd" clip-rule="evenodd" d="M38.576 28.2982H43.4672V36.4141H38.576V28.2982ZM3.4988 0L0 16.0171H3.15963V38.1317H2.08857V46.5482H50.2506V38.1317H49.4116V16.0171H52L48.5012 0H3.4988ZM23.6169 27.8903V41.2879H21.5819V13.0971L24.1346 8.13735H29.1329L31.632 13.0326V41.2879H29.9897V27.8903H23.6169ZM34.9523 15.9956V38.1103H46.1092V16.0171H34.9523V15.9956ZM18.2794 38.1103H6.46207V16.0171H18.2794V38.1317V38.1103ZM10.0144 28.2768H14.9056V36.3926H10.0144V28.2768ZM10.0144 17.1765H14.9056V25.2923H10.0144V17.1765ZM24.3488 14.6429H29.24V22.7588H24.3488V14.6429ZM38.5582 17.1765H43.4494V25.2923H38.5582V17.1765Z" fill="#C44C29"/>
</svg>
