<svg width="46" height="37" viewBox="0 0 46 37" fill="none" xmlns="http://www.w3.org/2000/svg">
<path fill-rule="evenodd" clip-rule="evenodd" d="M5.90783 6.66124L15.0268 1.43734L22.431 4.40476L31.6123 0L40.061 6.66124H5.90783ZM7.68485 24.5894H19.2355V26.104H7.70044V24.5894H7.68485ZM26.5463 24.5894H38.0969V26.104H26.5463V24.5894ZM26.5463 19.381H38.0969V20.911H26.5463V19.381ZM26.5463 13.817H38.0969V15.3471H26.5463V13.817ZM7.68485 13.817H19.2355V15.3471H7.70044V13.817H7.68485ZM7.68485 19.381H19.2355V20.911H7.70044V19.381H7.68485ZM2.11996 9.24227V29.3187H0V32.4716H2.3226C2.18231 32.8271 2.11996 33.2289 2.11996 33.6307C2.11996 35.4854 3.63199 37 5.51813 37C6.87428 37 8.04338 36.2118 8.58895 35.0526C9.13453 36.1963 10.3036 37 11.6598 37C13.5303 37 15.0579 35.5008 15.0579 33.6307C15.0579 33.2289 14.98 32.8271 14.8553 32.4716H31.1603C31.0356 32.8271 30.9576 33.2289 30.9576 33.6307C30.9576 35.4854 32.4697 37 34.3558 37C35.712 37 36.8966 36.2118 37.4266 35.0526C37.9722 36.1963 39.1413 37 40.4975 37C42.368 37 43.8956 35.5008 43.8956 33.6307C43.8956 33.2289 43.8177 32.8271 43.693 32.4716H46.0156V29.3187H43.4748V9.24227H2.11996Z" fill="#C44C29"/>
</svg>
