<svg width="48" height="44" viewBox="0 0 48 44" fill="none" xmlns="http://www.w3.org/2000/svg">
<path fill-rule="evenodd" clip-rule="evenodd" d="M29.0891 25.311H45.9882V24.6462H47.0165C46.7482 19.2791 42.665 15.0147 37.6579 15.0147C32.6507 15.0147 28.5675 19.2791 28.2993 24.6462H29.0891V25.311ZM23.2027 16.0524V17.8685H23.2474C24.8271 17.8198 25.14 17.8198 25.1549 20.0736V21.9545C25.1549 23.6246 25.0953 23.6571 23.918 24.1921L14.5296 27.127C14.1273 27.2567 14.172 27.5486 14.2018 28.1161C14.2018 28.3431 14.2018 28.6025 14.2018 28.7971V29.1052H18.6278L16.7948 31.8941H16.1689L16.1987 42.4335C16.1987 42.9362 15.8261 43.3416 15.3642 43.3416H12.3092C11.8473 43.3416 11.4747 42.9524 11.4747 42.4498L11.4449 31.9103H10.7892L8.85191 29.1214H13.2481V28.7971C13.2481 28.4728 13.2481 28.2944 13.2481 28.1323C13.2183 26.9324 13.1437 26.4784 14.1124 26.1703L23.5604 23.2193C24.1863 22.9274 24.231 22.9112 24.2161 21.9383V20.0574C24.2161 18.8576 24.0522 18.8576 23.2772 18.8738H23.2176V20.5601C23.2176 21.3546 22.6364 22.0032 21.9062 22.0032L2.7271 22.068C1.9969 22.068 1.40081 21.4195 1.40081 20.6412V18.9711H0V17.9495H1.38591V16.1173C1.38591 15.3228 1.96709 14.6742 2.6973 14.6742L21.8764 14.6093C22.6066 14.6093 23.2027 15.2579 23.2027 16.0362V16.0524ZM8.91152 5.95075C8.19621 4.91302 7.06364 4.232 5.78206 4.232C3.65104 4.232 1.96709 6.14532 1.92238 8.46401L1.87768 11.4313C8.7923 11.3988 15.7069 11.3826 22.6215 11.3502L22.6514 3.95636C22.6514 2.72405 21.7274 1.73496 20.5948 1.73496C19.4623 1.73496 18.5532 2.74026 18.5532 3.97257V6.3399C18.2105 6.04804 17.7783 5.88589 17.3164 5.88589C17.0779 5.88589 16.8544 5.93454 16.6458 6.01561V4.19958C16.6458 1.88089 14.9022 0 12.7712 0C10.6402 0 8.91152 1.91332 8.91152 4.232V5.95075ZM4.15771 15.5336H3.06985C2.25023 15.7119 2.0565 16.2146 2.07141 17.3496C2.57808 16.8632 3.29339 16.6524 4.15771 16.6362L21.1313 16.5064V15.4038L4.15771 15.5336ZM29.3275 25.8785H45.8094C45.8094 25.8785 46.2266 27.4675 45.3772 27.9215C44.5427 28.3755 43.0078 26.3973 42.516 27.7269C42.0242 29.0565 42.4862 37.7475 41.1301 37.1314C39.774 36.5152 41.1301 28.2458 39.2822 27.9053C37.4343 27.5486 37.8516 32.5264 34.901 32.2022C31.9503 31.8941 29.3424 25.8785 29.3424 25.8785H29.3275ZM27.8224 24.6462C27.8224 24.5489 27.8224 24.4354 27.8224 24.3381C27.8224 18.4684 32.1888 13.7175 37.5834 13.7175C42.978 13.7175 47.3443 18.4684 47.3443 24.3381C47.3443 24.4354 47.3443 24.5489 47.3443 24.6462H48V26.9648H46.5992L44.6023 42.2228H30.5495L28.6271 26.9648H27.1071V24.6462H27.8373H27.8224Z" fill="#C44C29"/>
</svg>
