<svg width="37" height="38" viewBox="0 0 37 38" fill="none" xmlns="http://www.w3.org/2000/svg">
<path d="M18.5 37.6426C21.0078 37.6426 23.3691 37.1621 25.584 36.2012C27.7988 35.252 29.7441 33.9336 31.4199 32.2461C33.1074 30.5586 34.4316 28.6133 35.3926 26.4102C36.3535 24.1953 36.834 21.8281 36.834 19.3086C36.834 16.8008 36.3535 14.4453 35.3926 12.2422C34.4316 10.0273 33.1074 8.07617 31.4199 6.38867C29.7441 4.70117 27.793 3.38281 25.5664 2.43359C23.3516 1.47266 20.9902 0.992188 18.4824 0.992188C15.9746 0.992188 13.6133 1.47266 11.3984 2.43359C9.18359 3.38281 7.23242 4.70117 5.54492 6.38867C3.86914 8.07617 2.55078 10.0273 1.58984 12.2422C0.640625 14.4453 0.166016 16.8008 0.166016 19.3086C0.166016 21.8281 0.640625 24.1953 1.58984 26.4102C2.55078 28.6133 3.875 30.5586 5.5625 32.2461C7.25 33.9336 9.20117 35.252 11.416 36.2012C13.6309 37.1621 15.9922 37.6426 18.5 37.6426ZM16.5488 28.0273C16.1855 28.0273 15.8574 27.9512 15.5645 27.7988C15.2715 27.6348 14.9961 27.3887 14.7383 27.0605L10.502 21.9629C10.3379 21.7402 10.209 21.5234 10.1152 21.3125C10.0332 21.0898 9.99219 20.8613 9.99219 20.627C9.99219 20.1348 10.1621 19.7188 10.502 19.3789C10.8418 19.0273 11.2578 18.8516 11.75 18.8516C12.043 18.8516 12.3066 18.916 12.541 19.0449C12.7754 19.1621 13.0098 19.3672 13.2441 19.6602L16.4961 23.7383L23.5801 12.418C24.002 11.75 24.5234 11.416 25.1445 11.416C25.6133 11.416 26.0293 11.5684 26.3926 11.873C26.7676 12.1777 26.9551 12.5762 26.9551 13.0684C26.9551 13.291 26.9082 13.5137 26.8145 13.7363C26.7324 13.959 26.627 14.1699 26.498 14.3691L18.2891 27.0605C18.0781 27.3652 17.8203 27.6055 17.5156 27.7812C17.2227 27.9453 16.9004 28.0273 16.5488 28.0273Z" fill="url(#paint0_linear_762_397)"/>
<defs>
<linearGradient id="paint0_linear_762_397" x1="6.36926" y1="6.76515" x2="33.7118" y2="29.5966" gradientUnits="userSpaceOnUse">
<stop stop-color="#44D2B0"/>
<stop offset="1" stop-color="#B4AAF9"/>
</linearGradient>
</defs>
</svg>
