<svg width="37" height="38" viewBox="0 0 37 38" fill="none" xmlns="http://www.w3.org/2000/svg">
<path d="M8.11559 30.649H25.7017L24.8618 27.856C24.9864 27.9675 32.0669 34.2008 32.0669 34.2008V6.93578C31.9831 5.24098 30.5623 3.80078 28.8011 3.80078L8.12176 3.80458C6.36179 3.80458 4.93359 5.24731 4.93359 6.94211V27.5128C4.93359 29.3 6.35933 30.649 8.11559 30.649ZM21.1248 10.9992L21.0841 11.0144L21.0989 10.9992H21.1248ZM11.7132 12.6066C13.9739 10.9169 16.0694 10.998 16.0694 10.998L16.2383 11.169C13.472 11.8466 12.2177 13.1158 12.2177 13.1158C12.3459 13.088 17.9317 9.77818 24.7002 13.1994C24.7002 13.1994 23.4435 12.0126 20.8473 11.2526L21.0767 11.0208C21.4356 11.022 23.3349 11.0904 25.3675 12.6168C25.3675 12.6168 27.6417 16.6068 27.6417 21.5088C27.5665 21.415 26.2308 23.619 22.7935 23.695C22.7935 23.695 22.2114 23.0187 21.797 22.4284C23.8073 21.8356 24.5596 20.65 24.5596 20.65C20.6463 23.1808 17.2164 22.7856 13.1131 21.0756C13.0748 21.0756 13.0576 21.0578 13.0378 21.0376V21.03C13.0181 21.011 13.0008 20.992 12.9626 20.992H12.8886C12.637 20.8222 12.4693 20.7386 12.4693 20.7386C12.4693 20.7386 13.2204 21.9242 15.1505 22.517C14.6436 23.1111 14.1417 23.7862 14.1417 23.7862C10.7056 23.7027 9.45253 21.4986 9.45253 21.4986C9.45253 16.589 11.7132 12.6066 11.7132 12.6066Z" fill="#3A256C"/>
<path d="M21.3469 19.9782C22.2237 19.9782 22.9378 19.2182 22.9378 18.2808C22.9378 17.3498 22.2274 16.5898 21.3469 16.5898V16.5936C20.4737 16.5936 19.7583 17.3511 19.7559 18.2884C19.7559 19.2182 20.47 19.9782 21.3469 19.9782Z" fill="#3A256C"/>
<path d="M15.6515 19.9782C16.5284 19.9782 17.2425 19.2182 17.2425 18.2808C17.2425 17.3498 16.5334 16.5898 15.6565 16.5898L15.6515 16.5936C14.7746 16.5936 14.0605 17.3511 14.0605 18.2884C14.0605 19.2182 14.7746 19.9782 15.6515 19.9782Z" fill="#3A256C"/>
</svg>
