<svg width="49" height="68" viewBox="0 0 49 68" fill="none" xmlns="http://www.w3.org/2000/svg">
<g filter="url(#filter0_d_755_6440)">
<path d="M8.65625 63.375H39.75C44.2188 63.375 46.4062 61.1562 46.4062 56.3125V32.2812C46.4062 27.9375 44.5938 25.6875 40.9062 25.3125V17.875C40.9062 5.8125 32.6875 0 24.1875 0C15.7188 0 7.46875 5.8125 7.46875 17.875V25.375C3.96875 25.875 2 28.0938 2 32.2812V56.3125C2 61.1562 4.21875 63.375 8.65625 63.375ZM15 17.375C15 10.9375 19.0625 7.25 24.1875 7.25C29.3438 7.25 33.4062 10.9375 33.4062 17.375V25.2812H15V17.375Z" fill="white"/>
</g>
<defs>
<filter id="filter0_d_755_6440" x="0" y="0" width="48.4062" height="67.375" filterUnits="userSpaceOnUse" color-interpolation-filters="sRGB">
<feFlood flood-opacity="0" result="BackgroundImageFix"/>
<feColorMatrix in="SourceAlpha" type="matrix" values="0 0 0 0 0 0 0 0 0 0 0 0 0 0 0 0 0 0 127 0" result="hardAlpha"/>
<feOffset dy="2"/>
<feGaussianBlur stdDeviation="1"/>
<feComposite in2="hardAlpha" operator="out"/>
<feColorMatrix type="matrix" values="0 0 0 0 0 0 0 0 0 0 0 0 0 0 0 0 0 0 0.25 0"/>
<feBlend mode="normal" in2="BackgroundImageFix" result="effect1_dropShadow_755_6440"/>
<feBlend mode="normal" in="SourceGraphic" in2="effect1_dropShadow_755_6440" result="shape"/>
</filter>
</defs>
</svg>
