<?xml version="1.0" encoding="UTF-8"?>
<svg xmlns="http://www.w3.org/2000/svg" xmlns:xlink="http://www.w3.org/1999/xlink" width="38px" height="38px" viewBox="0 0 38 38" version="1.1">
<g id="surface1">
<path style=" stroke:none;fill-rule:evenodd;fill:rgb(22.745098%,14.509804%,42.352941%);fill-opacity:1;" d="M 19 0 C 29.488281 0 38 8.511719 38 19 C 38 29.488281 29.488281 38 19 38 C 8.511719 38 0 29.488281 0 19 C 0 8.511719 8.511719 0 19 0 Z M 30.089844 29.011719 L 30.089844 28.640625 L 28.355469 26.933594 C 28.203125 26.820312 28.125 26.625 28.15625 26.4375 L 28.15625 13.914062 C 28.125 13.722656 28.203125 13.53125 28.355469 13.414062 L 30.132812 11.710938 L 30.132812 11.335938 L 23.980469 11.335938 L 19.59375 22.28125 L 14.601562 11.335938 L 8.148438 11.335938 L 8.148438 11.710938 L 10.226562 14.214844 C 10.429688 14.398438 10.535156 14.667969 10.507812 14.941406 L 10.507812 24.785156 C 10.566406 25.140625 10.457031 25.5 10.207031 25.761719 L 7.867188 28.597656 L 7.867188 28.972656 L 14.5 28.972656 L 14.5 28.597656 L 12.160156 25.761719 C 11.910156 25.503906 11.789062 25.140625 11.839844 24.785156 L 11.839844 16.273438 L 17.660156 28.972656 L 18.335938 28.972656 L 23.335938 16.273438 L 23.335938 26.394531 C 23.335938 26.664062 23.335938 26.71875 23.15625 26.894531 L 21.359375 28.640625 L 21.359375 29.011719 Z M 30.089844 29.011719 "/>
</g>
</svg>
