<svg width="38" height="37" viewBox="0 0 38 37" fill="none" xmlns="http://www.w3.org/2000/svg">
<path d="M22.5435 23.6615C22.6781 23.791 22.6781 24.0022 22.5435 24.1332C21.8073 24.8455 20.653 25.1924 19.0111 25.1924L18.9984 25.1893L18.9858 25.1924C17.3454 25.1924 16.1896 24.8455 15.4533 24.1317C15.3188 24.0022 15.3188 23.791 15.4533 23.6615C15.5863 23.532 15.8048 23.532 15.9394 23.6615C16.5395 24.2427 17.5354 24.5264 18.9858 24.5264L18.9984 24.5295L19.0111 24.5264C20.4598 24.5264 21.4557 24.2427 22.0574 23.6615C22.192 23.532 22.4105 23.532 22.5435 23.6615ZM17.0968 19.9338C17.0968 19.1521 16.4413 18.517 15.637 18.517C14.8311 18.517 14.1756 19.1521 14.1756 19.9338C14.1756 20.7138 14.8311 21.349 15.637 21.349C16.4413 21.3505 17.0968 20.7154 17.0968 19.9338ZM38 18.5C38 28.7166 29.4928 37 19 37C8.50725 37 0 28.7166 0 18.5C0 8.28337 8.50725 0 19 0C29.4928 0 38 8.28337 38 18.5ZM30.0833 18.3011C30.0833 16.9892 28.9829 15.9223 27.6292 15.9223C26.9689 15.9223 26.3704 16.1798 25.9287 16.593C24.2567 15.5215 21.9941 14.8401 19.4908 14.7522L20.8604 10.5527L24.5702 11.3991L24.5654 11.4515C24.5654 12.5245 25.4663 13.3971 26.5731 13.3971C27.6798 13.3971 28.5792 12.5245 28.5792 11.4515C28.5792 10.3785 27.6798 9.50592 26.5731 9.50592C25.7228 9.50592 24.9993 10.0224 24.7063 10.7454L20.7084 9.83275C20.5343 9.79112 20.3553 9.88979 20.3015 10.0563L18.7736 14.7399C16.1516 14.7707 13.7782 15.4583 12.0318 16.5606C11.5932 16.1675 11.0121 15.9208 10.3693 15.9208C9.01708 15.9223 7.91667 16.9892 7.91667 18.3011C7.91667 19.1737 8.40908 19.9291 9.13267 20.3438C9.08517 20.5967 9.0535 20.8541 9.0535 21.1147C9.0535 24.6312 13.4948 27.4925 18.9541 27.4925C24.4134 27.4925 28.8547 24.6312 28.8547 21.1147C28.8547 20.868 28.8278 20.626 28.785 20.387C29.5545 19.9846 30.0833 19.2061 30.0833 18.3011ZM22.3693 18.5185C21.5634 18.5185 20.9095 19.1537 20.9095 19.9353C20.9095 20.7154 21.565 21.3505 22.3693 21.3505C23.1737 21.3505 23.8292 20.7154 23.8292 19.9353C23.8292 19.1537 23.1753 18.5185 22.3693 18.5185Z" fill="#3A256C"/>
</svg>
