<svg width="38" height="38" viewBox="0 0 38 38" fill="none" xmlns="http://www.w3.org/2000/svg">
<path d="M36.1004 8.84471C34.8185 9.38897 33.4609 9.74584 32.0716 9.90372C33.5299 9.07119 34.6264 7.75096 35.1565 6.1897C33.7748 6.97162 32.2678 7.52236 30.6985 7.81895C30.0377 7.14598 29.2427 6.61096 28.3622 6.24652C27.4817 5.88209 26.534 5.69588 25.577 5.69926C21.7022 5.69926 18.5609 8.70838 18.5609 12.4157C18.5609 12.9411 18.6225 13.4548 18.7422 13.9452C15.9627 13.8167 13.2413 13.1263 10.7516 11.9181C8.26197 10.7098 6.0587 9.01026 4.28242 6.92785C3.65968 7.94929 3.33237 9.11533 3.33508 10.3027C3.33508 12.6352 4.57312 14.6917 6.45412 15.8937C5.34174 15.8588 4.25339 15.57 3.27694 15.0508V15.1339C3.27694 18.3891 5.69659 21.1039 8.90284 21.7224C8.30025 21.8778 7.67948 21.9566 7.05604 21.9568C6.60289 21.9568 6.16342 21.9152 5.73421 21.8321C6.19263 23.1753 7.0699 24.3463 8.24418 25.1826C9.41846 26.0189 10.8315 26.4789 12.2869 26.4987C9.79045 28.3683 6.7257 29.3783 3.57448 29.3699C3.00676 29.3699 2.4493 29.3366 1.90039 29.2768C5.11733 31.2563 8.84742 32.3046 12.6546 32.2992C25.5599 32.2992 32.6154 22.0632 32.6154 13.1871L32.5915 12.3177C33.9678 11.3761 35.1567 10.1994 36.1004 8.84471Z" fill="#3A256C"/>
</svg>
